# xmcd
#
# Track frame offsets: 
#        150
#        18967
#        43294
#        60216
#        75387
#        95490
#        111635
#        133250
#        144886
#        162566
#
# Disc length: 2394 seconds
#
# Revision: 4
# Processed by: cddbd v1.5.2PL0 Copyright (c) Steve Scherf et al.
# Submitted via: ExactAudioCopy v0.99pb4
#
DISCID=8309580a
DTITLE=Johnny Winter - Guitar Slinger
DYEAR=1984
DGENRE=Blues
TTITLE0=It's my Life, Baby
TTITLE1=Don't Take Advantage of Me
TTITLE2=Iodine in my Coffee
TTITLE3=Trick Bag
TTITLE4=Mad Dog
TTITLE5=Boot Hill
TTITLE6=I Smell Trouble
TTITLE7=Lights Out
TTITLE8=Kiss Tomorrow Goodbye
TTITLE9=My Soul
EXTD=
EXTT0=
EXTT1=
EXTT2=
EXTT3=
EXTT4=
EXTT5=
EXTT6=
EXTT7=
EXTT8=
EXTT9=
PLAYORDER=
